<?xml version="1.0" standalone="no"?>
<!DOCTYPE svg PUBLIC "-//W3C//DTD SVG 20010904//EN"
 "http://www.w3.org/TR/2001/REC-SVG-20010904/DTD/svg10.dtd">
<svg version="1.0" xmlns="http://www.w3.org/2000/svg"
 width="980.000000pt" height="860.000000pt" viewBox="0 0 980.000000 860.000000"
 preserveAspectRatio="xMidYMid meet">
<metadata>
Created by potrace 1.15, written by Peter Selinger 2001-2017
</metadata>
<g transform="translate(0.000000,860.000000) scale(0.100000,-0.100000)"
fill="#000000" stroke="none">
<path d="M4860 8593 c-54 -11 -167 -72 -216 -116 -119 -107 -204 -300 -268
-606 -59 -279 -119 -762 -136 -1081 -11 -217 -33 -1973 -28 -2256 l3 -182 95
40 c184 76 365 108 624 108 175 0 307 -22 476 -81 80 -28 153 -53 164 -56 18
-6 18 23 13 1048 -5 1017 -8 1141 -42 1589 -44 575 -82 815 -172 1074 -99 288
-194 427 -336 491 -56 26 -131 38 -177 28z"/>
<path d="M4741 4149 c-299 -35 -584 -207 -783 -473 -71 -95 -159 -271 -188
-377 -41 -151 -44 -447 -5 -591 114 -434 460 -767 900 -865 100 -22 364 -22
470 1 225 49 396 141 568 305 184 175 286 353 339 585 29 124 30 372 4 496
-51 240 -151 415 -343 601 -210 203 -401 290 -700 319 -121 11 -156 11 -262
-1z m316 -485 c64 -7 186 -64 270 -128 104 -79 209 -229 238 -341 21 -81 21
-329 0 -410 -23 -89 -88 -189 -179 -280 -138 -136 -262 -193 -442 -202 -240
-13 -458 85 -594 265 -65 87 -107 172 -121 247 -17 93 -7 359 16 415 99 241
323 421 545 439 78 6 178 4 267 -5z"/>
<path d="M3120 2764 c-1188 -682 -1853 -1092 -2304 -1421 -412 -301 -688 -593
-787 -833 -32 -77 -33 -215 -2 -282 26 -58 91 -129 146 -162 231 -135 658 -53
1352 257 589 263 917 441 2339 1265 l200 116 -55 45 c-29 25 -106 98 -169 161
-234 232 -386 524 -435 833 -9 56 -19 117 -23 135 l-7 32 -255 -146z"/>
<path d="M6416 2858 c-21 -152 -32 -208 -63 -308 -90 -299 -235 -509 -525
-764 -43 -37 -78 -71 -78 -76 0 -12 145 -99 605 -363 866 -496 1185 -670 1555
-850 806 -390 1042 -470 1443 -484 l167 -6 67 34 c219 111 268 304 143 554
-57 113 -126 202 -264 340 -310 309 -971 773 -1761 1237 -630 369 -1247 718
-1272 718 -7 0 -14 -15 -17 -32z"/>
</g>
</svg>
